<?xml version="1.0" encoding="utf-8"?>
<!-- Generator: Adobe Illustrator 23.1.0, SVG Export Plug-In . SVG Version: 6.00 Build 0)  -->
<svg version="1.1" id="Layer_1" xmlns="http://www.w3.org/2000/svg" x="0px" y="0px"
     viewBox="0 0 69.83 68.24" style="enable-background:new 0 0 69.83 68.24;" xml:space="preserve">
<style type="text/css">
	.st0{fill:#FFD700;}
	.st1{fill:#0AAD69;}
	.st2{fill:#00DAFF;}
	.st3{fill:#5A59FF;}
</style>
<g>
	<path class="st0" d="M37.94,9.79c-1.37-1.37-3.56-1.44-5.03-0.22L32.9,9.59c-0.08,0.07-0.15,0.13-0.22,0.2
		c-0.07,0.07-0.14,0.14-0.2,0.22L10.56,31.79c-0.08,0.07-0.15,0.13-0.22,0.2c-1.45,1.44-1.45,3.79,0,5.24
		c1.39,1.39,3.61,1.44,5.08,0.17l0.01,0.01L38.17,14.8l2.4-2.39L37.94,9.79z"/>
	<path class="st1" d="M48.57,20.35l-7.99-7.94l-5.27,5.24l7.99,7.94c1.45,1.44,3.82,1.44,5.27,0C50.02,24.14,50.02,21.8,48.57,20.35
		z"/>
	<path class="st2" d="M31.69,58.45c1.37,1.37,3.56,1.44,5.03,0.22l0.02-0.02c0.08-0.07,0.15-0.13,0.22-0.2
		c0.07-0.07,0.14-0.15,0.2-0.22l21.91-21.77c0.08-0.07,0.15-0.13,0.22-0.2c1.45-1.44,1.45-3.79,0-5.24
		c-1.39-1.39-3.61-1.44-5.08-0.17l-0.01-0.01L31.46,53.44l-2.4,2.39L31.69,58.45z"/>
	<path class="st3" d="M21.06,47.89l8.01,7.95l5.26-5.24l-8-7.95c-1.45-1.44-3.82-1.44-5.27,0C19.6,44.1,19.6,46.44,21.06,47.89z"/>
</g>
</svg>
