<svg width="14" height="16" viewBox="0 0 14 16" fill="none" xmlns="http://www.w3.org/2000/svg">
    <path d="M4.33919 11.3334C3.971 11.3334 3.67253 11.6318 3.67253 12C3.67253 12.3682 3.971 12.6667 4.33919 12.6667C4.70738 12.6667 5.00586 12.3682 5.00586 12C5.00586 11.6318 4.70738 11.3334 4.33919 11.3334Z" fill="#1D2330"/>
    <path d="M3.67253 9.33335C3.67253 8.96516 3.971 8.66669 4.33919 8.66669C4.70738 8.66669 5.00586 8.96516 5.00586 9.33335C5.00586 9.70154 4.70738 10 4.33919 10C3.971 10 3.67253 9.70154 3.67253 9.33335Z" fill="#1D2330"/>
    <path d="M9.66211 8.66669C9.29392 8.66669 8.99544 8.96516 8.99544 9.33335C8.99544 9.70154 9.29392 10 9.66211 10C10.0303 10 10.3288 9.70154 10.3288 9.33335C10.3288 8.96516 10.0303 8.66669 9.66211 8.66669Z" fill="#1D2330"/>
    <path d="M6.33398 12C6.33398 11.6318 6.63246 11.3334 7.00065 11.3334C7.36884 11.3334 7.66732 11.6318 7.66732 12C7.66732 12.3682 7.36884 12.6667 7.00065 12.6667C6.63246 12.6667 6.33398 12.3682 6.33398 12Z" fill="#1D2330"/>
    <path d="M6.99544 8.66669C6.62725 8.66669 6.32878 8.96516 6.32878 9.33335C6.32878 9.70154 6.62725 10 6.99544 10C7.36363 10 7.66211 9.70154 7.66211 9.33335C7.66211 8.96516 7.36363 8.66669 6.99544 8.66669Z" fill="#1D2330"/>
    <path fill-rule="evenodd" clip-rule="evenodd" d="M10.334 1.33335C10.334 0.965164 10.0355 0.666687 9.66732 0.666687C9.29913 0.666687 9.00065 0.965164 9.00065 1.33335V2.00002H5.00065V1.33335C5.00065 0.965164 4.70217 0.666687 4.33398 0.666687C3.96579 0.666687 3.66732 0.965164 3.66732 1.33335V2.00002H3.10829C2.75687 2.00001 2.45368 2 2.20397 2.0204C1.9404 2.04194 1.67826 2.08948 1.426 2.21801C1.04968 2.40976 0.743719 2.71572 0.551973 3.09204C0.423443 3.34429 0.375899 3.60644 0.354365 3.87C0.333963 4.11972 0.333973 4.42289 0.333985 4.77433L0.333984 6.66669L0.333985 12.5591C0.333973 12.9105 0.333963 13.2137 0.354365 13.4634C0.375899 13.7269 0.423443 13.9891 0.551973 14.2413C0.743719 14.6177 1.04968 14.9236 1.426 15.1154C1.67826 15.2439 1.9404 15.2914 2.20397 15.313C2.45368 15.3334 2.75685 15.3334 3.10827 15.3334H10.893C11.2445 15.3334 11.5476 15.3334 11.7973 15.313C12.0609 15.2914 12.323 15.2439 12.5753 15.1154C12.9516 14.9236 13.2576 14.6177 13.4493 14.2413C13.5779 13.9891 13.6254 13.7269 13.6469 13.4634C13.6673 13.2137 13.6673 12.9105 13.6673 12.5591V4.77431C13.6673 4.42288 13.6673 4.11971 13.6469 3.87C13.6254 3.60644 13.5779 3.34429 13.4493 3.09204C13.2576 2.71572 12.9516 2.40976 12.5753 2.21801C12.323 2.08948 12.0609 2.04194 11.7973 2.0204C11.5476 2 11.2444 2.00001 10.893 2.00002H10.334V1.33335ZM12.334 4.80002V6.00002H1.66732V4.80002C1.66732 4.41565 1.66784 4.16747 1.68327 3.97858C1.69807 3.79747 1.72319 3.73032 1.73998 3.69736C1.8039 3.57192 1.90588 3.46993 2.03133 3.40602C2.06429 3.38922 2.13143 3.3641 2.31254 3.34931C2.50143 3.33387 2.74962 3.33335 3.13399 3.33335H10.8673C11.2517 3.33335 11.4999 3.33387 11.6888 3.34931C11.8699 3.3641 11.937 3.38922 11.97 3.40602C12.0954 3.46993 12.1974 3.57192 12.2613 3.69736C12.2781 3.73032 12.3032 3.79747 12.318 3.97858C12.3335 4.16747 12.334 4.41565 12.334 4.80002ZM12.334 7.33335H1.66732V12.5334C1.66732 12.9177 1.66784 13.1659 1.68327 13.3548C1.69807 13.5359 1.72319 13.6031 1.73998 13.636C1.8039 13.7615 1.90588 13.8634 2.03133 13.9274C2.06429 13.9442 2.13143 13.9693 2.31254 13.9841C2.50143 13.9995 2.74962 14 3.13399 14H10.8673C11.2517 14 11.4999 13.9995 11.6888 13.9841C11.8699 13.9693 11.937 13.9442 11.97 13.9274C12.0954 13.8634 12.1974 13.7615 12.2613 13.636C12.2781 13.6031 12.3032 13.5359 12.318 13.3548C12.3335 13.1659 12.334 12.9177 12.334 12.5334V7.33335Z" fill="#1D2330"/>
</svg>
