<svg width="16" height="16" viewBox="0 0 16 16" fill="none" xmlns="http://www.w3.org/2000/svg">
    <path fill-rule="evenodd" clip-rule="evenodd" d="M8 16C12.4183 16 16 12.4183 16 8C16 3.58172 12.4183 0 8 0C3.58172 0 0 3.58172 0 8C0 12.4183 3.58172 16 8 16ZM5.80474 4.86193C5.54439 4.60158 5.12228 4.60158 4.86193 4.86193C4.60158 5.12228 4.60158 5.54439 4.86193 5.80474L7.05716 7.99997L4.86193 10.1952C4.60158 10.4556 4.60158 10.8777 4.86193 11.138C5.12228 11.3984 5.54439 11.3984 5.80474 11.138L7.99997 8.94278L10.1953 11.1381C10.4556 11.3984 10.8777 11.3984 11.1381 11.1381C11.3984 10.8777 11.3984 10.4556 11.1381 10.1953L8.94278 7.99997L11.1381 5.80468C11.3984 5.54433 11.3984 5.12222 11.1381 4.86187C10.8777 4.60152 10.4556 4.60152 10.1953 4.86187L7.99997 7.05716L5.80474 4.86193Z" fill="#1D2330"/>
</svg>
