<svg width="16" height="17" viewBox="0 0 16 17" fill="none" xmlns="http://www.w3.org/2000/svg">
<path d="M3.80506 3.36195C3.54471 3.1016 3.1226 3.1016 2.86225 3.36195C2.6019 3.6223 2.6019 4.04441 2.86225 4.30476L7.05757 8.50007L2.86225 12.6954C2.60191 12.9557 2.6019 13.3778 2.86225 13.6382C3.1226 13.8985 3.54471 13.8985 3.80506 13.6382L8.00038 9.44288L12.1956 13.6381C12.4559 13.8984 12.878 13.8984 13.1384 13.6381C13.3987 13.3777 13.3987 12.9556 13.1384 12.6953L8.94318 8.50007L13.1384 4.30486C13.3987 4.04451 13.3987 3.6224 13.1384 3.36205C12.878 3.1017 12.4559 3.1017 12.1956 3.36205L8.00038 7.55726L3.80506 3.36195Z" fill="#1D2330"/>
</svg>
