<svg width="24" height="25" viewBox="0 0 24 25" fill="none" xmlns="http://www.w3.org/2000/svg">
<path fill-rule="evenodd" clip-rule="evenodd" d="M12 24.5C18.6274 24.5 24 19.1274 24 12.5C24 5.87258 18.6274 0.5 12 0.5C5.37258 0.5 0 5.87258 0 12.5C0 19.1274 5.37258 24.5 12 24.5ZM17.7071 8.79289C18.0976 9.18342 18.0976 9.81658 17.7071 10.2071L10.7071 17.2071C10.3166 17.5976 9.68342 17.5976 9.29289 17.2071L5.29289 13.2071C4.90237 12.8166 4.90237 12.1834 5.29289 11.7929C5.68342 11.4024 6.31658 11.4024 6.70711 11.7929L10 15.0858L16.2929 8.79289C16.6834 8.40237 17.3166 8.40237 17.7071 8.79289Z" fill="#007A52"/>
</svg>
