<svg width="16" height="17" viewBox="0 0 16 17" fill="none" xmlns="http://www.w3.org/2000/svg">
<path d="M4.66699 9.83335C5.03518 9.83335 5.33366 9.53488 5.33366 9.16669C5.33366 8.7985 5.03518 8.50002 4.66699 8.50002C4.2988 8.50002 4.00033 8.7985 4.00033 9.16669C4.00033 9.53488 4.2988 9.83335 4.66699 9.83335Z" fill="#1D2330"/>
<path d="M8.00033 9.16669C8.00033 9.53488 7.70185 9.83335 7.33366 9.83335C6.96547 9.83335 6.66699 9.53488 6.66699 9.16669C6.66699 8.7985 6.96547 8.50002 7.33366 8.50002C7.70185 8.50002 8.00033 8.7985 8.00033 9.16669Z" fill="#1D2330"/>
<path d="M10.0003 9.83335C10.3685 9.83335 10.667 9.53488 10.667 9.16669C10.667 8.7985 10.3685 8.50002 10.0003 8.50002C9.63214 8.50002 9.33366 8.7985 9.33366 9.16669C9.33366 9.53488 9.63214 9.83335 10.0003 9.83335Z" fill="#1D2330"/>
<path d="M5.33366 11.8334C5.33366 12.2015 5.03518 12.5 4.66699 12.5C4.2988 12.5 4.00033 12.2015 4.00033 11.8334C4.00033 11.4652 4.2988 11.1667 4.66699 11.1667C5.03518 11.1667 5.33366 11.4652 5.33366 11.8334Z" fill="#1D2330"/>
<path d="M7.33366 12.5C7.70185 12.5 8.00033 12.2015 8.00033 11.8334C8.00033 11.4652 7.70185 11.1667 7.33366 11.1667C6.96547 11.1667 6.66699 11.4652 6.66699 11.8334C6.66699 12.2015 6.96547 12.5 7.33366 12.5Z" fill="#1D2330"/>
<path fill-rule="evenodd" clip-rule="evenodd" d="M5.33366 1.83335C5.33366 1.46516 5.03518 1.16669 4.66699 1.16669C4.2988 1.16669 4.00033 1.46516 4.00033 1.83335V2.50002H2.66699C1.56242 2.50002 0.666992 3.39545 0.666992 4.50002V13.1667C0.666992 14.2713 1.56242 15.1667 2.66699 15.1667H13.3337C14.4382 15.1667 15.3337 14.2713 15.3337 13.1667V4.50002C15.3337 3.39545 14.4382 2.50002 13.3337 2.50002H12.0003V1.83335C12.0003 1.46516 11.7018 1.16669 11.3337 1.16669C10.9655 1.16669 10.667 1.46516 10.667 1.83335V2.50002H5.33366V1.83335ZM2.00033 4.50002C2.00033 4.13183 2.2988 3.83335 2.66699 3.83335H13.3337C13.7018 3.83335 14.0003 4.13183 14.0003 4.50002V5.83335H2.00033V4.50002ZM2.00033 7.16669H14.0003V13.1667C14.0003 13.5349 13.7018 13.8334 13.3337 13.8334H2.66699C2.2988 13.8334 2.00033 13.5349 2.00033 13.1667V7.16669Z" fill="#1D2330"/>
</svg>
