<svg width="74" height="108" viewBox="0 0 74 108" fill="none" xmlns="http://www.w3.org/2000/svg">
    <path d="M0 14.0989H2.96001V22.9789H0V14.0989Z" fill="#BFC5D4"/>
    <path d="M0 37.7793H2.96001V46.6593H0V37.7793Z" fill="#BFC5D4"/>
    <path d="M0 25.9391H2.96001V34.8191H0V25.9391Z" fill="#BFC5D4"/>
    <path d="M0 73.2991H2.96001V82.1791H0V73.2991Z" fill="#BFC5D4"/>
    <path d="M0 85.1393H2.96001V94.0193H0V85.1393Z" fill="#BFC5D4"/>
    <path d="M71.04 46.6589H74.0001V55.539H71.04V46.6589Z" fill="#BFC5D4"/>
    <path d="M0 49.6196H2.96001V58.4997H0V49.6196Z" fill="#BFC5D4"/>
    <path d="M71.04 34.8198H74.0001V43.6999H71.04V34.8198Z" fill="#BFC5D4"/>
    <path d="M0 61.4598H2.96001V70.3399H0V61.4598Z" fill="#BFC5D4"/>
    <path d="M6.15619 0.719971H0V11.1394H2.96001V3.67998H6.15619V0.719971Z" fill="#BFC5D4"/>
    <path d="M16.2207 104.32H25.1007V107.28H16.2207V104.32Z" fill="#BFC5D4"/>
    <path d="M71.04 94.019H74.0001V102.899H71.04V94.019Z" fill="#BFC5D4"/>
    <path d="M71.04 70.3395H74.0001V79.2195H71.04V70.3395Z" fill="#BFC5D4"/>
    <path d="M71.04 82.1798H74.0001V91.0598H71.04V82.1798Z" fill="#BFC5D4"/>
    <path d="M72.4609 22.2689L70.3301 24.3997L71.0404 24.9919V31.8591H74.0004V23.8074L72.4609 22.2689Z" fill="#BFC5D4"/>
    <path d="M28.0605 104.32H36.9406V107.28H28.0605V104.32Z" fill="#BFC5D4"/>
    <path d="M4.38086 104.32H13.2609V107.28H4.38086V104.32Z" fill="#BFC5D4"/>
    <path d="M51.7412 104.32H60.6212V107.28H51.7412V104.32Z" fill="#BFC5D4"/>
    <path d="M71.04 58.4993H74.0001V67.3793H71.04V58.4993Z" fill="#BFC5D4"/>
    <path d="M39.9014 104.32H48.7814V107.28H39.9014V104.32Z" fill="#BFC5D4"/>
    <path d="M63.582 104.32H72.4621V107.28H63.582V104.32Z" fill="#BFC5D4"/>
    <path d="M32.7959 0.719971H41.6759V3.67998H32.7959V0.719971Z" fill="#BFC5D4"/>
    <path d="M51.5042 5.5746L53.6358 3.44297L50.9119 0.719971H44.6367V3.67998H49.6102L51.5042 5.5746Z" fill="#BFC5D4"/>
    <path d="M0 96.9796H2.96001V105.86H0V96.9796Z" fill="#BFC5D4"/>
    <path d="M70.4463 20.2136L68.3535 22.3064L62.0742 16.0271L64.167 13.9343L70.4463 20.2136Z" fill="#BFC5D4"/>
    <path d="M9.11621 0.719971H17.9962V3.67998H9.11621V0.719971Z" fill="#BFC5D4"/>
    <path d="M20.9561 0.719971H29.8361V3.67998H20.9561V0.719971Z" fill="#BFC5D4"/>
    <path d="M61.9551 11.8414L59.8622 13.9342L53.583 7.65495L55.6758 5.56213L61.9551 11.8414Z" fill="#BFC5D4"/>
    <path d="M60.0283 24.4005H66.5406V27.3605H60.0283V24.4005Z" fill="#BFC5D4"/>
    <path d="M47.3613 27.36H55.2942V24.3999H50.3213V19.4271H47.3613V27.36Z" fill="#BFC5D4"/>
    <path d="M47.3613 8.17981H50.3213V14.692H47.3613V8.17981Z" fill="#BFC5D4"/>
</svg>
