<svg width="16" height="17" viewBox="0 0 16 17" fill="none" xmlns="http://www.w3.org/2000/svg">
<path fill-rule="evenodd" clip-rule="evenodd" d="M0.666992 3.83331C0.666992 2.72874 1.56242 1.83331 2.66699 1.83331H6.66699C6.88989 1.83331 7.09805 1.94471 7.22169 2.13018L8.35711 3.83331H12.0003C13.1049 3.83331 14.0003 4.72874 14.0003 5.83331V6.54207C15.0979 6.77029 15.8271 7.89095 15.5175 9.02621L14.2448 13.6929C14.0075 14.563 13.2172 15.1666 12.3153 15.1666H1.33366C0.965469 15.1666 0.666992 14.8682 0.666992 14.5V3.83331ZM12.667 6.49998V5.83331C12.667 5.46512 12.3685 5.16665 12.0003 5.16665H8.00033C7.77742 5.16665 7.56927 5.05525 7.44562 4.86978L6.3102 3.16665H2.66699C2.2988 3.16665 2.00033 3.46512 2.00033 3.83331V9.52181L2.42253 7.97374C2.65983 7.10362 3.45015 6.49998 4.35205 6.49998H12.667ZM2.20649 13.8333H12.3153C12.6159 13.8333 12.8793 13.6321 12.9584 13.3421L14.2312 8.67539C14.3468 8.2513 14.0276 7.83331 13.588 7.83331H4.35205C4.05142 7.83331 3.78798 8.03453 3.70888 8.32457L2.20649 13.8333Z" fill="#97A3B5"/>
</svg>
