<svg width="24" height="24" viewBox="0 0 24 24" fill="none" xmlns="http://www.w3.org/2000/svg">
<path d="M12 2C6.47715 2 2 6.47715 2 12C2 17.5228 6.47715 22 12 22C16.5605 22 20.4055 18.9481 21.609 14.7773C21.7622 14.2466 21.4561 13.6923 20.9255 13.5392C20.3948 13.3861 19.8406 13.6921 19.6874 14.2227C18.7243 17.5605 15.6457 20 12 20C7.58172 20 4 16.4183 4 12C4 7.58172 7.58172 4 12 4C14.2104 4 16.2098 4.89514 17.6588 6.34511C18.4165 7.10335 19.277 8.13128 19.9692 9H16C15.4477 9 15 9.44772 15 10C15 10.5523 15.4477 11 16 11H21.9895C22.0968 11.0012 22.2047 10.9852 22.3089 10.9514C22.4289 10.9124 22.5389 10.8514 22.6342 10.7732C22.8579 10.59 22.983 10.3273 22.9984 10.0564C22.9997 10.0335 23.0003 10.0106 23 9.98758V4C23 3.44772 22.5523 3 22 3C21.4477 3 21 3.44772 21 4V7.09444C20.3981 6.36248 19.7132 5.57146 19.0735 4.93138C17.2648 3.12139 14.7624 2 12 2Z" fill="#1D2330"/>
</svg>
