<svg width="150" height="23" viewBox="0 0 150 23" fill="none" xmlns="http://www.w3.org/2000/svg">
<path d="M147.908 19.4401H121.952C121.66 20.3942 121.009 21.1695 120.17 21.6304L146.374 21.0862C147.209 21.0689 147.92 20.4738 148.084 19.655C148.106 19.5438 148.021 19.4401 147.908 19.4401Z" fill="#FFD700"/>
<path d="M121.952 19.4401H95.9778C95.9771 19.4441 95.9778 19.4475 95.9769 19.4514C95.6878 20.753 94.3102 21.6812 93.541 22.1833L108.107 21.8809L120.17 21.6304C121.009 21.1695 121.66 20.3942 121.952 19.4401Z" fill="#00D1FF"/>
<path d="M73.6159 19.4401C72.336 19.4401 71.1861 20.0886 70.5057 21.0991C70.3341 21.3537 70.1956 21.6329 70.0888 21.9287C70.0274 22.0988 69.9736 22.2729 69.9372 22.4548C69.9145 22.5674 70.0022 22.672 70.117 22.6697L87.9335 22.2997L93.5416 22.1833C94.7442 21.7668 95.6884 20.753 95.9775 19.4514C95.9782 19.4475 95.9777 19.4441 95.9784 19.4401H73.6159Z" fill="#6559FF"/>
<path d="M146.166 9.46852H141.787C141.647 9.46852 141.561 9.31472 141.632 9.19434C141.891 8.76006 142.214 8.40591 142.599 8.13154C143.062 7.80165 143.602 7.63671 144.22 7.63671C144.844 7.63671 145.341 7.79303 145.71 8.10513C146.032 8.37806 146.242 8.7597 146.342 9.24968C146.365 9.36198 146.28 9.46852 146.166 9.46852ZM148.5 6.0153C147.499 5.04001 146.199 4.552 144.599 4.552C143.56 4.552 142.59 4.73617 141.688 5.10469C140.786 5.47321 140.021 5.97505 139.393 6.61021C138.764 7.24555 138.27 8.00164 137.908 8.879C137.547 9.75655 137.366 10.6898 137.366 11.6795C137.366 12.6549 137.584 13.5429 138.019 14.343C138.454 15.1431 139.075 15.7765 139.882 16.2433C140.689 16.7101 141.602 16.9435 142.62 16.9435C144.122 16.9435 145.474 16.5627 146.678 15.8011C147.715 15.1453 148.427 14.4894 148.986 13.4549C149.115 13.2153 148.942 12.9234 148.67 12.9234H145.668C145.473 12.9234 145.29 13.0082 145.153 13.1463C144.969 13.3302 144.784 13.4148 144.476 13.5673C144.065 13.7711 143.609 13.7745 143.125 13.7745C142.437 13.7745 141.911 13.5991 141.546 13.248C141.181 12.8971 140.995 12.3779 140.988 11.6899H148.2C149.151 11.6899 149.953 10.9498 149.994 10C149.999 9.89526 150.001 9.79176 150 9.68953C150 8.21563 149.5 6.99095 148.5 6.0153Z" fill="#293745"/>
<path d="M44.5952 9.46852H40.2167C40.0765 9.46852 39.9903 9.31472 40.0622 9.19434C40.3211 8.76006 40.6432 8.40591 41.0283 8.13154C41.4915 7.80165 42.0318 7.63671 42.6497 7.63671C43.2741 7.63671 43.7709 7.79303 44.1394 8.10513C44.4614 8.37806 44.672 8.7597 44.7717 9.24968C44.7945 9.36198 44.7099 9.46852 44.5952 9.46852ZM43.0286 4.552C41.9897 4.552 41.0193 4.73617 40.1177 5.10469C39.2155 5.47321 38.4505 5.97505 37.8225 6.61021C37.1941 7.24555 36.6993 8.00164 36.3382 8.879C35.9765 9.75655 35.7959 10.6898 35.7959 11.6795C35.7959 12.6549 36.0133 13.5429 36.4487 14.343C36.8837 15.1431 37.5048 15.7765 38.3121 16.2433C39.119 16.7101 40.0314 16.9435 41.0493 16.9435C42.5512 16.9435 43.904 16.5627 45.1079 15.8011C46.1444 15.1453 46.8568 14.4894 47.416 13.4549C47.5454 13.2153 47.3714 12.9234 47.0992 12.9234H44.0974C43.9022 12.9234 43.72 13.0082 43.5822 13.1463C43.3991 13.3302 43.2133 13.4148 42.9056 13.5673C42.4948 13.7711 42.039 13.7745 41.5547 13.7745C40.8668 13.7745 40.3403 13.5991 39.9756 13.248C39.6457 12.9311 39.4619 12.4765 39.4245 11.8845C39.4178 11.7797 39.4992 11.6899 39.6042 11.6899H46.6297C47.5804 11.6899 48.3825 10.9498 48.4242 10C48.4288 9.89526 48.4306 9.79176 48.4294 9.68953C48.4294 8.21563 47.9293 6.99095 46.9293 6.0153C45.929 5.04001 44.6288 4.552 43.0286 4.552Z" fill="#293745"/>
<path d="M36.3407 6.76081L36.5871 5.5293C36.6315 5.30686 36.4615 5.09951 36.2347 5.09951H34.1106C33.9979 5.09951 33.9129 4.99709 33.934 4.88641L34.0411 4.32043C34.0969 4.01875 34.2304 3.77996 34.441 3.60441C34.6516 3.42922 34.9112 3.34136 35.2201 3.34136H35.5304C36.3851 3.34136 37.1214 2.73926 37.2914 1.9016L37.5227 0.76101C37.5678 0.538389 37.3976 0.330322 37.1705 0.330322H34.8201C33.6057 0.330322 32.6266 0.642602 31.8828 1.26734C31.1385 1.89208 30.6543 2.78328 30.4299 3.94131L30.2272 4.95505C30.2103 5.03896 30.1367 5.09951 30.051 5.09951H29.1028C28.5889 5.09951 28.1466 5.4621 28.0458 5.96609L27.6839 7.77527C27.6393 7.99771 27.8095 8.20524 28.0362 8.20524H29.3159C29.4293 8.20524 29.5143 8.30891 29.492 8.42013L27.9471 16.1452C27.9025 16.3675 28.0727 16.575 28.2995 16.575H30.2518C31.1084 16.575 31.8458 15.9704 32.0137 15.1306L33.37 8.3497C33.3867 8.26561 33.4605 8.20524 33.546 8.20524H34.5788C35.4353 8.20524 36.1727 7.60062 36.3407 6.76081Z" fill="#293745"/>
<path d="M107.503 0.730286H105.561C104.704 0.730286 103.967 1.3349 103.799 2.17471L101.177 15.2854C101.043 15.9526 101.553 16.575 102.234 16.575H104.477C104.649 16.575 104.796 16.4541 104.83 16.2861L107.855 1.16007C107.899 0.937813 107.729 0.730286 107.503 0.730286Z" fill="#293745"/>
<path d="M116.418 4.93098H114.074C113.961 4.93098 113.876 4.82748 113.898 4.71644L114.444 1.95965C114.488 1.73738 114.318 1.5304 114.092 1.5304H113.868C113.778 1.5304 113.692 1.56364 113.626 1.62365L107.391 7.27865L107.298 7.74383C107.254 7.96609 107.424 8.17362 107.65 8.17362H109.172C109.286 8.17362 109.371 8.27604 109.348 8.38726C109.284 8.70816 109.204 9.10705 109.107 9.58427C108.855 10.8548 108.695 11.6811 108.628 12.0636C108.561 12.4464 108.528 12.7709 108.528 13.0375C108.528 14.1256 108.87 14.987 109.555 15.6222C110.239 16.2575 111.181 16.575 112.381 16.575H113.077C113.934 16.575 114.671 15.9704 114.839 15.1306L115.159 13.5305C115.203 13.3081 115.033 13.1007 114.807 13.1007H113.824C113.403 13.1007 113.079 13.0044 112.855 12.8111C112.63 12.6181 112.518 12.3391 112.518 11.9742C112.518 11.8026 112.75 10.5838 113.215 8.31862C113.232 8.23507 113.306 8.17362 113.391 8.17362H114.738C115.595 8.17362 116.334 7.56739 116.5 6.72596L116.771 5.36023C116.815 5.13797 116.645 4.93098 116.418 4.93098Z" fill="#293745"/>
<path d="M58.0168 4.93098H55.6726C55.5594 4.93098 55.4744 4.82748 55.4963 4.71644L56.0425 1.95965C56.0866 1.73738 55.9166 1.5304 55.6902 1.5304H55.4663C55.377 1.5304 55.291 1.56364 55.2248 1.62365L48.9897 7.27865L48.8968 7.74383C48.8522 7.96609 49.0224 8.17362 49.2491 8.17362H50.7706C50.8842 8.17362 50.9695 8.27604 50.9471 8.38726C50.8827 8.70816 50.8023 9.10705 50.7058 9.58427C50.4531 10.8548 50.2932 11.6811 50.2267 12.0636C50.1599 12.4464 50.1267 12.7709 50.1267 13.0375C50.1267 14.1256 50.469 14.987 51.1532 15.6222C51.8376 16.2575 52.7798 16.575 53.98 16.575H54.6757C55.5323 16.575 56.2697 15.9704 56.4377 15.1306L56.7577 13.5305C56.802 13.3081 56.6321 13.1007 56.4053 13.1007H55.4223C55.0011 13.1007 54.6781 13.0044 54.4537 12.8111C54.2289 12.6181 54.1168 12.3391 54.1168 11.9742C54.1168 11.8026 54.3491 10.5838 54.8136 8.31862C54.8306 8.23507 54.9045 8.17362 54.9898 8.17362H56.3363C57.1941 8.17362 57.9322 7.56739 58.0988 6.72596L58.3694 5.36023C58.4134 5.13797 58.2434 4.93098 58.0168 4.93098Z" fill="#293745"/>
<path d="M129.038 4.93097H127.087C126.23 4.93097 125.492 5.53648 125.325 6.37702L124.36 11.2267C124.226 11.8865 123.954 12.4215 123.544 12.8323C123.133 13.2429 122.647 13.448 122.086 13.448C121.089 13.448 120.591 13.0024 120.591 12.1111C120.591 11.9989 120.601 11.862 120.622 11.7005C120.656 11.4768 121.073 9.36362 121.873 5.3613C121.918 5.13886 121.748 4.93097 121.521 4.93097H119.571C118.717 4.93097 117.981 5.53055 117.81 6.36695C117.73 6.76188 117.642 7.19221 117.548 7.65776C117.141 9.63691 116.897 10.8513 116.816 11.3004C116.736 11.7496 116.695 12.1531 116.695 12.5112C116.695 13.8308 117.141 14.8993 118.032 15.7168C118.924 16.5345 120.11 16.9433 121.591 16.9433C123.303 16.9433 124.735 16.4959 125.886 15.6011C127.037 14.7062 127.774 13.4551 128.097 11.8478L129.391 5.36058C129.435 5.13832 129.265 4.93097 129.038 4.93097Z" fill="#293745"/>
<path d="M101.496 4.93097H99.545C98.6879 4.93097 97.9501 5.53648 97.7829 6.37702L96.8178 11.2267C96.6843 11.8865 96.4125 12.4215 96.0019 12.8323C95.5912 13.2429 95.105 13.448 94.5436 13.448C93.547 13.448 93.0487 13.0024 93.0487 12.1111C93.0487 11.9989 93.0593 11.862 93.0803 11.7005C93.1141 11.4768 93.531 9.36362 94.3313 5.3613C94.3758 5.13886 94.2058 4.93097 93.9791 4.93097H92.0287C91.1751 4.93097 90.4395 5.53055 90.2686 6.36695C90.1879 6.76188 90.1004 7.19221 90.0062 7.65776C89.5989 9.63691 89.3549 10.8513 89.2744 11.3004C89.1936 11.7496 89.1533 12.1531 89.1533 12.5112C89.1533 13.8308 89.5989 14.8993 90.4905 15.7168C91.3817 16.5345 92.5677 16.9433 94.049 16.9433C95.7613 16.9433 97.1932 16.4959 98.3444 15.6011C99.4952 14.7062 100.232 13.4551 100.555 11.8478L101.849 5.36058C101.893 5.13832 101.723 4.93097 101.496 4.93097Z" fill="#293745"/>
<path d="M137.93 6.97999L138.262 5.30791C138.306 5.08565 138.136 4.87848 137.91 4.87848H137.221C135.956 4.87848 134.871 5.23855 133.963 5.9587C133.864 6.0374 133.716 5.98529 133.682 5.86347L133.494 5.19327C133.45 5.03821 133.309 4.93112 133.148 4.93112H132.346C131.489 4.93112 130.752 5.53574 130.584 6.37573L128.803 15.2858C128.67 15.9527 129.18 16.5751 129.861 16.5751H132.105C132.276 16.5751 132.423 16.4542 132.457 16.2864L133.631 10.4372C133.792 9.72834 134.069 9.21608 134.463 8.90021C134.856 8.58433 135.41 8.4264 136.126 8.4264H136.167C137.025 8.4264 137.763 7.8207 137.93 6.97999Z" fill="#293745"/>
<path d="M7.92762 1.17194C6.62891 1.17194 5.4973 1.37192 4.53243 1.77206C3.56702 2.17202 2.80375 2.78975 2.24244 3.6249C1.68077 4.4604 1.40029 5.46731 1.40029 6.64653C1.40029 8.10659 2.2994 9.16184 3.60565 9.72064C4.58831 10.1409 5.66278 10.2974 6.67221 10.6489C7.50969 10.9406 8.19767 11.5438 7.75369 12.4812C7.42039 13.1848 6.58399 13.5073 5.84533 13.5073C4.75721 13.5073 4.28052 12.577 4.10533 12.0897C4.04568 11.9237 3.87319 11.8279 3.69998 11.8615L0.437037 12.4954C0.159255 12.5495 -0.0281489 12.8082 0.00347434 13.0892C0.118109 14.106 0.572514 15.229 1.37388 15.8742C2.31089 16.6287 3.59343 17.006 5.22185 17.006C6.56225 17.006 7.74668 16.7884 8.77516 16.3533C10.5872 15.5862 11.8685 13.8967 12.0803 11.9314C12.1754 11.0508 12.0054 10.1501 11.5558 9.41285C11.3201 9.02636 11.0077 8.6848 10.6161 8.41438C9.43206 7.59703 7.93624 7.49713 6.62208 6.99008C6.22212 6.83591 5.72153 6.62839 5.56917 6.18925C5.37278 5.62345 5.74669 5.03447 6.24763 4.77914C6.68371 4.55652 7.30539 4.50262 7.78082 4.60971C8.35399 4.73872 8.68801 5.17641 8.74605 5.70682C8.76833 5.91004 8.96903 6.04533 9.16991 6.00634L12.3477 5.38897C12.6221 5.33561 12.8096 5.08082 12.782 4.80286C12.4787 1.75427 9.38175 1.17194 7.92762 1.17194Z" fill="#293745"/>
<path d="M70.8923 4.93097H68.9663C68.3344 4.93097 67.7488 5.26301 67.4243 5.80528L64.4025 10.8567C64.3906 10.8767 64.3759 10.8921 64.3597 10.9051C64.2614 10.984 64.1003 10.9385 64.0722 10.8001L63.1751 6.37109C63.0055 5.53325 62.269 4.93097 61.4141 4.93097H59.7954C59.327 4.93097 58.9838 5.37172 59.0984 5.82576L61.5668 15.5934L61.0811 16.409L60.2437 17.8148C60.0336 18.1673 59.8902 18.5475 59.8108 18.9383C59.7909 19.0366 59.7765 19.1356 59.7648 19.2349C59.6998 19.786 59.7607 20.3493 59.9531 20.8795C60.0043 21.0206 60.0643 21.1591 60.1339 21.2946L60.3554 21.7262L60.7414 22.4785C60.8253 22.6418 61.0393 22.6666 61.1613 22.5453C61.1757 22.5311 61.1895 22.516 61.201 22.4977L61.6649 21.7535L62.181 20.9259L63.2353 19.2349L63.4204 18.9383L63.5449 18.7383L64.4575 17.2811L67.3512 12.6593L71.5014 6.03114C71.8011 5.55247 71.457 4.93097 70.8923 4.93097Z" fill="#293745"/>
<path d="M83.4323 5.54172C83.8729 5.92748 84.1758 6.4304 84.3436 7.04885C84.3932 7.23176 84.572 7.3482 84.7581 7.31262L87.7383 6.74412C88.0161 6.69111 88.2047 6.43364 88.1731 6.15262C88.0719 5.25818 87.5848 3.35306 85.3326 1.92534C84.3533 1.30455 83.1901 1.08319 81.9478 1.08319C80.6635 1.08319 79.4422 1.32001 78.2842 1.79382C77.126 2.26745 76.1291 2.9098 75.2942 3.72032C74.4588 4.53103 73.7955 5.50668 73.3044 6.64709C72.8128 7.78787 72.5674 8.99674 72.5674 10.2741C72.5674 11.5234 72.8464 12.6517 73.4043 13.6588C74.9787 16.4997 78.6322 17.5167 81.637 16.8019C84.2092 16.1901 87.6299 14.0892 88.0879 10.0261C88.1449 9.52158 87.6103 9.41197 87.3617 9.83458C85.5309 12.947 80.5034 15.2646 77.7685 12.5545C75.9252 10.7281 76.5889 8.25647 77.8131 6.6965C79.0297 5.14625 81.7671 4.08525 83.4323 5.54172Z" fill="#293745"/>
<path d="M21.3206 12.4796C20.6852 13.1393 19.9394 13.4692 19.0834 13.4692C18.4096 13.4692 17.8728 13.2728 17.4726 12.8797C17.0725 12.4866 16.8725 11.9673 16.8725 11.3215C16.8725 10.4303 17.1864 9.65648 17.8147 9.00012C18.4427 8.34375 19.1815 8.01566 20.0309 8.01566C20.7046 8.01566 21.2469 8.21421 21.6575 8.61057C22.068 9.00712 22.2734 9.52819 22.2734 10.1739C22.2734 11.0515 21.9556 11.82 21.3206 12.4796ZM25.8857 4.93096H24.6505C24.403 4.93096 24.1728 5.05853 24.0414 5.26821L23.6693 5.86259C23.6073 5.96159 23.4708 5.97381 23.388 5.89133C22.4977 5.0057 21.361 4.56244 19.9782 4.56244C19.0446 4.56244 18.1498 4.74319 17.2937 5.10471C16.4371 5.4664 15.6897 5.95925 15.0511 6.58381C14.4123 7.20873 13.9037 7.97002 13.5246 8.86841C13.1456 9.76698 12.9561 10.725 12.9561 11.7425C12.9561 13.2939 13.4385 14.5484 14.4037 15.5064C15.3686 16.4645 16.5951 16.9435 18.0832 16.9435C19.3917 16.9435 20.5986 16.5737 21.704 15.8345C21.8107 15.763 21.9554 15.8187 21.982 15.9443L22.0551 16.29C22.0903 16.4562 22.2369 16.575 22.4067 16.575H23.4005C24.2571 16.575 24.9946 15.9702 25.1625 15.1302L26.9429 6.22032C27.0762 5.55318 26.5659 4.93096 25.8857 4.93096Z" fill="#293745"/>
</svg>
