<svg width="16" height="17" viewBox="0 0 16 17" fill="none" xmlns="http://www.w3.org/2000/svg">
<path fill-rule="evenodd" clip-rule="evenodd" d="M11.5528 12.9953C10.4036 13.9358 8.9345 14.5 7.33366 14.5C3.65176 14.5 0.666992 11.5153 0.666992 7.83335C0.666992 4.15146 3.65176 1.16669 7.33366 1.16669C11.0156 1.16669 14.0003 4.15146 14.0003 7.83335C14.0003 9.43421 13.4361 10.9033 12.4956 12.0525L15.1384 14.6953C15.3987 14.9556 15.3987 15.3777 15.1384 15.6381C14.878 15.8984 14.4559 15.8984 14.1956 15.6381L11.5528 12.9953ZM12.667 7.83335C12.667 10.7789 10.2792 13.1667 7.33366 13.1667C4.38814 13.1667 2.00033 10.7789 2.00033 7.83335C2.00033 4.88783 4.38814 2.50002 7.33366 2.50002C10.2792 2.50002 12.667 4.88783 12.667 7.83335Z" fill="#1D2330"/>
</svg>
