<svg width="32" height="32" viewBox="0 0 32 32" fill="none" xmlns="http://www.w3.org/2000/svg">
<rect width="32" height="32" rx="16" fill="#E9EEF6"/>
<path d="M13.5988 14.2038C13.2306 14.2038 12.9321 14.5023 12.9321 14.8704C12.9321 15.2386 13.2306 15.5371 13.5988 15.5371H18.4087C18.7769 15.5371 19.0754 15.2386 19.0754 14.8704C19.0754 14.5023 18.7769 14.2038 18.4087 14.2038H13.5988Z" fill="#3F495A"/>
<path d="M13.5988 17.1237C13.2306 17.1237 12.9321 17.4222 12.9321 17.7904C12.9321 18.1586 13.2306 18.457 13.5988 18.457H16.7375C17.1057 18.457 17.4041 18.1586 17.4041 17.7904C17.4041 17.4222 17.1057 17.1237 16.7375 17.1237H13.5988Z" fill="#3F495A"/>
<path fill-rule="evenodd" clip-rule="evenodd" d="M14.2751 10C14.3473 9.11104 15.0916 8.41211 15.9992 8.41211C16.9068 8.41211 17.6511 9.11104 17.7233 10H18.4964C18.9218 9.99999 19.2808 9.99998 19.575 10.024C19.883 10.0492 20.1781 10.104 20.4588 10.2471C20.8853 10.4644 21.2321 10.8111 21.4494 11.2376C21.5925 11.5184 21.6473 11.8135 21.6724 12.1215C21.6965 12.4156 21.6965 12.7747 21.6965 13.2V20.1333C21.6965 20.5587 21.6965 20.9177 21.6724 21.2118C21.6473 21.5199 21.5925 21.8149 21.4494 22.0957C21.2321 22.5222 20.8853 22.869 20.4588 23.0863C20.1781 23.2293 19.883 23.2842 19.575 23.3093C19.2808 23.3334 18.9218 23.3333 18.4964 23.3333H13.5033C13.0779 23.3333 12.7189 23.3334 12.4247 23.3093C12.1167 23.2842 11.8216 23.2293 11.5408 23.0863C11.1143 22.869 10.7676 22.5222 10.5503 22.0957C10.4072 21.8149 10.3524 21.5199 10.3272 21.2118C10.3032 20.9177 10.3032 20.5587 10.3032 20.1333V13.2001C10.3032 12.7747 10.3032 12.4156 10.3272 12.1215C10.3524 11.8135 10.4072 11.5184 10.5503 11.2376C10.7676 10.8111 11.1143 10.4644 11.5408 10.2471C11.8216 10.104 12.1167 10.0492 12.4247 10.024C12.7189 9.99998 13.0779 9.99999 13.5033 10H14.2751ZM12.5333 11.3529C12.7667 11.3339 13.0708 11.3333 13.5299 11.3333H18.4698C18.9288 11.3333 19.233 11.3339 19.4664 11.3529C19.692 11.3713 19.792 11.4037 19.8535 11.4351C20.0291 11.5245 20.1719 11.6673 20.2614 11.8429C20.2927 11.9044 20.3251 12.0045 20.3435 12.2301C20.3626 12.4634 20.3631 12.7676 20.3631 13.2267V20.1067C20.3631 20.5657 20.3626 20.8699 20.3435 21.1033C20.3251 21.3288 20.2927 21.4289 20.2614 21.4904C20.1719 21.666 20.0291 21.8088 19.8535 21.8983C19.792 21.9296 19.692 21.962 19.4664 21.9804C19.233 21.9995 18.9288 22 18.4698 22H13.5299C13.0708 22 12.7667 21.9995 12.5333 21.9804C12.3077 21.962 12.2077 21.9296 12.1462 21.8983C11.9705 21.8088 11.8278 21.666 11.7383 21.4904C11.707 21.4289 11.6746 21.3288 11.6561 21.1033C11.6371 20.8699 11.6366 20.5657 11.6366 20.1067V13.2267C11.6366 12.7676 11.6371 12.4634 11.6561 12.2301C11.6746 12.0045 11.707 11.9044 11.7383 11.8429C11.8278 11.6673 11.9705 11.5245 12.1462 11.4351C12.2077 11.4037 12.3077 11.3713 12.5333 11.3529Z" fill="#3F495A"/>
</svg>
