<svg width="24" height="25" viewBox="0 0 24 25" fill="none" xmlns="http://www.w3.org/2000/svg">
<g clip-path="url(#clip0_679_2913)">
<path d="M13.5 17C13.5 17.8284 12.8284 18.5 12 18.5C11.1716 18.5 10.5 17.8284 10.5 17C10.5 16.1716 11.1716 15.5 12 15.5C12.8284 15.5 13.5 16.1716 13.5 17Z" fill="#3F495A"/>
<path d="M11.5644 6.5C10.9876 6.5 10.5304 6.98668 10.5664 7.56238L10.9707 14.0312C10.9872 14.2947 11.2057 14.5 11.4697 14.5H12.5303C12.7943 14.5 13.0128 14.2947 13.0293 14.0312L13.4336 7.56238C13.4696 6.98668 13.0124 6.5 12.4355 6.5H11.5644Z" fill="#3F495A"/>
<path fill-rule="evenodd" clip-rule="evenodd" d="M0 12.5C0 5.87258 5.37258 0.5 12 0.5C18.6274 0.5 24 5.87258 24 12.5C24 19.1274 18.6274 24.5 12 24.5C5.37258 24.5 0 19.1274 0 12.5ZM12 2.5C6.47715 2.5 2 6.97715 2 12.5C2 18.0228 6.47715 22.5 12 22.5C17.5228 22.5 22 18.0228 22 12.5C22 6.97715 17.5228 2.5 12 2.5Z" fill="#3F495A"/>
</g>
<defs>
<clipPath id="clip0_679_2913">
<rect width="24" height="24" fill="white" transform="translate(0 0.5)"/>
</clipPath>
</defs>
</svg>
